<svg xmlns="http://www.w3.org/2000/svg" width="32" height="32" viewBox="0 0 32 32">
  <!-- Rocket body -->
  <path d="M16 2 C12 2, 10 6, 10 10 L10 18 C10 20, 11 22, 12 22 L20 22 C21 22, 22 20, 22 18 L22 10 C22 6, 20 2, 16 2 Z" fill="#3b82f6"/>
  
  <!-- Rocket nose cone -->
  <path d="M16 2 C14 2, 12 4, 12 6 L20 6 C20 4, 18 2, 16 2 Z" fill="#60a5fa"/>
  
  <!-- Window -->
  <circle cx="16" cy="10" r="3" fill="#ffffff"/>
  <circle cx="16" cy="10" r="2" fill="#1e40af"/>
  
  <!-- Flames -->
  <path d="M12 22 L10 28 L12 26 L14 28 L14 22 Z" fill="#ef4444"/>
  <path d="M18 22 L18 28 L18 26 L20 28 L22 22 Z" fill="#ef4444"/>
  <path d="M14 22 L14 26 L16 28 L18 26 L18 22 Z" fill="#f97316"/>
  
  <!-- Side fins -->
  <path d="M10 14 L8 16 L8 18 L10 18 Z" fill="#1e40af"/>
  <path d="M22 14 L24 16 L24 18 L22 18 Z" fill="#1e40af"/>
</svg>
